<mxfile host="app.diagrams.net" modified="2021-09-26T14:59:35.472Z" agent="5.0 (Windows NT 10.0; Win64; x64) AppleWebKit/537.36 (KHTML, like Gecko) Chrome/93.0.4577.82 Safari/537.36" etag="oUaxR2FcwI0uZf2rd9H_" version="15.1.4" type="github">
  <diagram id="Jc7Po-ff74hHkBsl3OZQ" name="Page-1">
    <mxGraphModel dx="1328" dy="746" grid="1" gridSize="10" guides="1" tooltips="1" connect="1" arrows="1" fold="1" page="1" pageScale="1" pageWidth="827" pageHeight="1169" math="0" shadow="0">
      <root>
        <mxCell id="0" />
        <mxCell id="1" parent="0" />
        <mxCell id="s5UdAXeK7dEilX7qUUhy-1" value="" style="rounded=1;whiteSpace=wrap;html=1;fillColor=#f5f5f5;strokeColor=#666666;fontColor=#333333;" vertex="1" parent="1">
          <mxGeometry x="90" y="250" width="630" height="100" as="geometry" />
        </mxCell>
        <mxCell id="s5UdAXeK7dEilX7qUUhy-2" value="" style="edgeStyle=orthogonalEdgeStyle;rounded=0;orthogonalLoop=1;jettySize=auto;html=1;" edge="1" parent="1" source="s5UdAXeK7dEilX7qUUhy-3" target="s5UdAXeK7dEilX7qUUhy-4">
          <mxGeometry relative="1" as="geometry" />
        </mxCell>
        <mxCell id="s5UdAXeK7dEilX7qUUhy-3" value="when: &lt;br&gt;current time" style="rounded=1;whiteSpace=wrap;html=1;fillColor=#dae8fc;strokeColor=#6c8ebf;" vertex="1" parent="1">
          <mxGeometry x="120" y="270" width="120" height="60" as="geometry" />
        </mxCell>
        <mxCell id="s5UdAXeK7dEilX7qUUhy-4" value="when:&lt;br&gt;cuttent + &lt;b&gt;&lt;font color=&quot;#ea6b66&quot;&gt;500&lt;/font&gt;&lt;/b&gt; ms" style="rounded=1;whiteSpace=wrap;html=1;fillColor=#dae8fc;strokeColor=#6c8ebf;" vertex="1" parent="1">
          <mxGeometry x="270" y="270" width="120" height="60" as="geometry" />
        </mxCell>
        <mxCell id="s5UdAXeK7dEilX7qUUhy-5" value="" style="edgeStyle=orthogonalEdgeStyle;rounded=0;orthogonalLoop=1;jettySize=auto;html=1;dashed=1;" edge="1" parent="1" target="s5UdAXeK7dEilX7qUUhy-8">
          <mxGeometry relative="1" as="geometry">
            <mxPoint x="390" y="300" as="sourcePoint" />
          </mxGeometry>
        </mxCell>
        <mxCell id="s5UdAXeK7dEilX7qUUhy-6" value="when:&lt;br&gt;cuttent + &lt;font color=&quot;#ea6b66&quot;&gt;&lt;b&gt;1500&lt;/b&gt;&lt;/font&gt; ms" style="rounded=1;whiteSpace=wrap;html=1;fillColor=#dae8fc;strokeColor=#6c8ebf;" vertex="1" parent="1">
          <mxGeometry x="580" y="270" width="120" height="60" as="geometry" />
        </mxCell>
        <mxCell id="s5UdAXeK7dEilX7qUUhy-7" value="" style="edgeStyle=orthogonalEdgeStyle;rounded=0;orthogonalLoop=1;jettySize=auto;html=1;dashed=1;" edge="1" parent="1" source="s5UdAXeK7dEilX7qUUhy-8" target="s5UdAXeK7dEilX7qUUhy-6">
          <mxGeometry relative="1" as="geometry" />
        </mxCell>
        <mxCell id="s5UdAXeK7dEilX7qUUhy-8" value="" style="rounded=1;whiteSpace=wrap;html=1;opacity=20;" vertex="1" parent="1">
          <mxGeometry x="426" y="270" width="120" height="60" as="geometry" />
        </mxCell>
        <mxCell id="s5UdAXeK7dEilX7qUUhy-9" value="" style="edgeStyle=orthogonalEdgeStyle;rounded=0;orthogonalLoop=1;jettySize=auto;html=1;fillColor=#f8cecc;strokeColor=#b85450;" edge="1" parent="1" source="s5UdAXeK7dEilX7qUUhy-10" target="s5UdAXeK7dEilX7qUUhy-8">
          <mxGeometry relative="1" as="geometry" />
        </mxCell>
        <mxCell id="s5UdAXeK7dEilX7qUUhy-10" value="delayed msg&lt;br&gt;&lt;b&gt;&lt;font color=&quot;#ea6b66&quot;&gt;1000 &lt;/font&gt;&lt;/b&gt;ms" style="rounded=1;whiteSpace=wrap;html=1;fillColor=#d5e8d4;strokeColor=#82b366;" vertex="1" parent="1">
          <mxGeometry x="426" y="150" width="120" height="60" as="geometry" />
        </mxCell>
      </root>
    </mxGraphModel>
  </diagram>
</mxfile>
